<svg version="1.1" id="Layer_1" xmlns="http://www.w3.org/2000/svg" xmlns:xlink="http://www.w3.org/1999/xlink" x="0px" y="0px"
	 width="100%" viewBox="0 0 641 389" enable-background="new 0 0 641 389" xml:space="preserve">
<path fill="#000000" opacity="1.000000" stroke="none" 
	d="
M365.000000,390.000000 
	C243.362717,390.000000 122.225441,390.000000 1.088161,390.000000 
	C1.058776,389.862762 1.003632,389.725525 1.003628,389.588287 
	C0.999976,260.119690 1.000000,130.651093 1.000000,1.000000 
	C107.746521,1.000000 214.493149,1.000000 321.239777,1.000000 
	C428.047211,1.000000 534.854614,1.000000 641.831055,1.000000 
	C641.831055,130.666489 641.831055,260.333221 641.831055,390.000000 
	C549.788269,390.000000 457.644135,390.000000 365.000000,390.000000 
M216.065903,136.922424 
	C216.065903,136.922424 215.990295,136.917007 215.886581,136.443619 
	C215.699707,136.139053 215.427597,135.987930 215.073837,135.926117 
	C215.073837,135.926117 215.009644,135.927902 214.906906,135.469498 
	C214.734848,135.160767 214.472870,135.022232 214.095139,134.892731 
	C214.095139,134.892731 213.933762,134.917099 213.677780,134.305939 
	C212.138931,133.527817 210.600082,132.749710 209.037796,131.961639 
	C209.037796,131.961639 209.026642,131.934891 208.698517,131.321548 
	C203.457397,128.527023 198.216293,125.732506 192.671021,122.357330 
	C187.702515,121.046402 182.799347,119.278481 177.746704,118.556030 
	C172.918060,117.865601 167.933884,118.263062 162.516663,118.075859 
	C162.347763,118.101822 162.178879,118.127777 161.116287,118.023933 
	C154.365189,119.318924 147.614075,120.613914 140.153061,121.977127 
	C138.074463,122.909607 135.995880,123.842094 133.334183,124.918091 
	C132.865250,125.247818 132.396317,125.577545 131.923187,125.934204 
	C131.923187,125.934204 131.946716,125.929321 131.481003,126.130829 
	C131.293091,126.405251 131.105194,126.679665 130.981400,126.960770 
	C130.981400,126.960770 130.959518,126.900131 130.358963,126.968010 
	C129.891312,127.293274 129.423645,127.618538 128.986252,127.976089 
	C128.986252,127.976089 128.960144,127.955032 128.546585,128.203171 
	C128.288071,128.412445 128.112305,128.676758 127.996391,128.991928 
	C127.996391,128.991928 127.999741,129.016205 127.239883,129.054993 
	C124.480309,130.279495 121.294701,130.992981 119.064423,132.852356 
	C115.981796,135.422348 113.618889,138.855637 110.397774,142.229843 
	C109.255730,143.455780 108.113686,144.681717 106.579208,146.173325 
	C106.325615,146.373154 106.133865,146.620850 105.886978,146.834259 
	C105.886978,146.834259 105.747543,146.865707 105.172188,147.200104 
	C101.480698,153.520721 97.789215,159.841354 93.974091,166.443924 
	C93.974091,166.443924 93.919296,166.746857 93.515923,167.303101 
	C93.368919,168.181808 93.221909,169.060501 92.777084,170.645752 
	C80.988815,206.349472 97.152664,243.847183 128.307190,261.582611 
	C129.872147,259.671631 131.379593,257.449341 133.266174,255.617447 
	C136.033722,252.930084 139.072449,250.521988 142.000671,248.000702 
	C142.000671,248.000702 142.009598,248.009659 141.953720,248.729721 
	C139.569870,251.811874 137.200043,254.905014 134.798706,257.973511 
	C131.597351,262.064270 132.043228,264.612152 136.851746,266.102844 
	C151.273727,270.573853 165.853989,273.887787 181.662537,269.869659 
	C182.440125,269.577850 183.217712,269.286041 184.476379,269.001556 
	C184.476379,269.001556 184.957367,269.014740 185.197998,269.200287 
	C185.197998,269.200287 185.629196,269.243591 185.629196,269.243591 
	C185.629196,269.243591 186.003555,269.001709 186.000000,269.000000 
	C186.000000,269.000000 186.001175,269.004456 186.803314,268.979309 
	C190.197220,267.645233 193.591125,266.311188 197.530777,264.970245 
	C197.712677,264.973267 197.894592,264.976318 198.232590,265.146423 
	C198.232590,265.146423 198.544617,265.201843 198.544617,265.201843 
	C198.544617,265.201843 198.800491,265.001770 198.893387,264.460724 
	C198.924896,264.280457 198.956390,264.100220 199.760422,263.924866 
	C204.504227,260.951569 209.248016,257.978241 214.004395,255.005310 
	C214.004395,255.005310 214.005585,254.992844 214.679199,254.833191 
	C224.156509,248.900253 237.765579,229.839798 235.684631,226.016235 
	C228.840210,232.968063 221.920990,239.995865 214.623215,247.592834 
	C206.915436,250.375580 199.324158,253.576477 191.452118,255.769608 
	C187.342560,256.914520 184.884293,253.567688 187.169617,250.343246 
	C191.132446,244.751877 195.655411,239.518936 200.293839,234.456696 
	C204.284912,230.100922 208.764633,226.192886 213.543427,221.871384 
	C216.403549,219.641266 219.263672,217.411163 222.144714,215.088333 
	C222.144714,215.088333 222.074493,215.024292 222.499817,214.801056 
	C222.760712,214.611572 222.990646,214.389938 223.772247,213.825333 
	C224.878067,212.924545 225.983887,212.023758 227.692764,210.786362 
	C229.806778,208.543869 231.920776,206.301361 234.638535,203.725403 
	C236.661819,202.004730 238.685104,200.284042 240.788864,198.494919 
	C241.975479,199.534973 243.335190,200.726746 245.209396,202.590683 
	C246.320663,202.656433 247.431915,202.722168 248.524109,202.786789 
	C249.366745,194.590576 250.246582,186.651230 250.963684,178.697220 
	C251.191925,176.165390 250.580399,174.386612 247.269547,175.804443 
	C242.896774,177.677032 238.396805,179.252640 233.158539,181.004715 
	C232.101425,181.055984 231.044327,181.107239 229.271179,181.278091 
	C227.487579,182.011261 225.703979,182.744431 222.892517,183.900116 
	C226.212036,186.204407 228.508179,187.798325 230.646225,189.282471 
	C228.600082,191.989822 226.733185,194.459991 224.166260,196.968246 
	C221.701401,198.589447 219.236526,200.210663 216.251312,202.176331 
	C215.158722,203.092392 214.066147,204.008453 212.274826,204.989578 
	C210.837555,205.654816 209.400284,206.320038 207.464264,207.073380 
	C207.252548,207.326630 207.040833,207.579880 206.387985,207.940475 
	C206.387985,207.940475 205.934799,207.967712 205.220413,207.870697 
	C202.735779,209.555206 200.251144,211.239716 197.438782,212.947464 
	C197.438782,212.947464 197.113083,212.990555 196.353134,212.878860 
	C195.568954,213.314804 194.784760,213.750763 193.661743,214.621994 
	C185.749146,218.502945 187.237411,208.640640 181.605042,207.885223 
	C185.116745,205.552948 187.795212,204.354263 189.678818,202.392426 
	C192.809357,199.131882 196.791870,195.789307 197.999146,191.757690 
	C201.124374,181.321304 200.924179,170.840195 192.291428,162.462448 
	C187.271210,157.590546 181.579681,153.855667 173.468445,153.369614 
	C161.992081,153.282990 150.515701,153.196365 138.269455,153.063309 
	C137.499146,153.088013 136.728821,153.112701 135.205200,153.083145 
	C133.759064,153.326599 132.312912,153.570053 130.241730,154.149475 
	C130.114105,157.803848 130.215973,161.484802 129.796738,165.105408 
	C129.342896,169.024796 131.082413,169.980148 134.618134,170.019180 
	C145.911423,170.143799 157.201538,170.530441 168.494125,170.752350 
	C175.699768,170.893951 179.856766,174.109863 180.760223,180.404526 
	C181.243713,183.773102 176.535645,189.439117 170.953888,191.046173 
	C162.129807,191.013199 153.305466,190.939377 144.481964,190.996429 
	C143.315369,191.003952 142.153076,191.678604 140.233521,192.061691 
	C134.396774,192.944138 130.724045,196.013474 130.012283,203.040009 
	C130.010925,213.994919 130.020279,224.949844 130.000488,235.904724 
	C129.995712,238.550858 129.894562,241.196808 129.138840,243.827682 
	C125.867935,241.448578 121.984550,239.581436 119.468498,236.571350 
	C115.617012,231.963669 112.962837,226.377426 109.346512,221.546341 
	C101.661514,211.279938 100.951103,199.501877 102.188820,187.588989 
	C102.840210,181.319290 105.410301,175.248947 107.808350,168.971817 
	C109.887535,165.679550 111.966728,162.387268 114.656448,158.800827 
	C115.163788,157.867111 115.671127,156.933395 116.517181,155.570007 
	C116.686844,155.050385 116.856506,154.530762 117.628403,153.848846 
	C118.443588,152.941528 119.258766,152.034195 120.697441,150.846405 
	C125.511833,146.930267 130.326233,143.014130 135.856232,138.964386 
	C143.386551,134.877335 151.373749,132.357758 160.890945,131.972549 
	C163.942551,131.921249 166.994141,131.869949 170.859772,131.939499 
	C173.257095,132.210190 175.654434,132.480865 178.829926,132.886642 
	C180.543900,133.382568 182.372070,133.644821 183.951370,134.416412 
	C189.654266,137.202682 195.273422,140.160339 201.217209,143.666763 
	C204.798370,146.774521 208.379532,149.882278 212.129837,153.500778 
	C212.427017,153.683823 212.724213,153.866867 213.134598,154.521881 
	C213.320129,154.823425 213.589783,154.982162 214.052338,155.706589 
	C216.109741,159.345703 218.006973,163.090439 220.303040,166.572159 
	C221.226761,167.972855 223.241013,169.907684 224.387131,169.685074 
	C228.677200,168.851898 232.813522,167.227127 238.686798,165.367432 
	C232.881241,157.813248 227.915680,151.352051 222.919617,144.277237 
	C222.310165,143.537354 221.700714,142.797455 220.853073,141.443756 
	C219.551407,140.289795 218.249741,139.135834 216.861633,137.503265 
	C216.681717,137.197495 216.415024,137.029099 216.065903,136.922424 
M491.068939,198.994202 
	C490.724030,200.079407 490.315186,201.148956 490.044952,202.252457 
	C488.663696,207.893143 488.697479,207.928207 494.667267,207.951981 
	C497.912781,207.964890 501.158356,207.954269 505.030792,207.954269 
	C502.501617,212.506226 500.543884,216.496857 495.439972,217.011429 
	C491.040070,217.455002 486.493469,218.418259 482.248840,217.716858 
	C479.522034,217.266266 476.355896,214.732422 474.880219,212.245987 
	C467.129974,199.187042 477.843018,179.520523 494.104980,180.216492 
	C499.378815,180.442184 504.517395,183.828659 510.088654,185.907761 
	C512.442078,184.161377 515.752991,181.704544 519.294678,179.076401 
	C518.697510,178.563477 518.394653,178.267792 518.056213,178.020950 
	C517.534973,177.640793 516.834106,177.407104 516.476868,176.916519 
	C509.726959,167.645844 499.446625,165.916702 489.774323,167.608917 
	C470.930176,170.905792 456.817322,189.386826 460.168579,209.882889 
	C461.322815,216.942108 465.131866,223.293198 471.398743,226.967377 
	C479.702484,231.835724 488.696625,232.101501 498.015686,229.137512 
	C505.278809,226.827438 510.675354,221.866089 514.593323,216.243240 
	C518.049255,211.283478 521.818787,205.128510 518.650391,197.286606 
	C510.063110,197.194595 501.475861,197.079788 492.888458,197.064835 
	C492.349243,197.063889 491.808685,197.843353 491.068939,198.994202 
M278.086334,194.966095 
	C277.231750,200.115189 276.404663,205.269043 275.514496,210.411987 
	C274.692200,215.162766 273.520081,219.876587 273.091949,224.659500 
	C272.937744,226.382172 274.710541,229.870895 275.244781,229.801193 
	C278.539490,229.371323 283.143463,232.215668 284.917084,227.438141 
	C286.401215,223.440353 286.609833,218.981369 287.936188,214.906601 
	C288.464417,213.283905 290.361145,211.183090 291.844666,211.000046 
	C294.405182,210.684036 298.388153,210.763184 299.548615,212.327545 
	C302.985229,216.960297 305.291321,222.423904 308.151062,227.499741 
	C308.660400,228.403748 309.669464,229.598831 310.506805,229.647659 
	C314.414948,229.875610 318.343750,229.748764 323.261627,229.748764 
	C322.192688,227.051697 321.465912,224.585571 320.278015,222.366272 
	C318.410645,218.877380 316.004608,215.662720 314.317444,212.099564 
	C313.772461,210.948578 314.294830,208.079895 315.137146,207.673889 
	C322.644653,204.055328 326.573730,198.189804 328.071228,190.082153 
	C330.022858,179.515442 323.991547,169.060043 313.063202,168.280991 
	C303.630066,167.608521 294.111084,167.985229 284.637451,168.209625 
	C283.267212,168.242081 280.922211,169.867554 280.754333,171.009567 
	C279.626312,178.683212 278.964783,186.425446 278.086334,194.966095 
M327.363037,209.463135 
	C327.587921,211.769638 327.527985,214.151657 328.113953,216.362442 
	C328.762512,218.809265 329.597504,221.391251 331.052765,223.408325 
	C338.119598,233.203552 356.891266,233.205673 366.358398,225.526489 
	C367.112823,224.914520 367.586151,223.180756 367.314728,222.214127 
	C366.162750,218.111893 362.202789,216.471603 357.975922,217.803146 
	C350.436127,220.178329 343.658569,220.856094 340.239288,213.707001 
	C342.141296,213.445633 343.822510,213.032547 345.507996,213.014206 
	C353.158142,212.931000 360.811890,212.841873 368.459198,213.001877 
	C371.757385,213.070877 373.004761,211.666138 372.886719,208.594330 
	C372.842102,207.433884 372.664215,206.260040 372.776611,205.114838 
	C374.423309,188.340881 359.988129,181.682465 347.385193,185.284927 
	C336.183502,188.486847 329.100220,196.650970 327.363037,209.463135 
M531.094604,190.606628 
	C528.416992,194.744736 525.112244,198.611511 523.181763,203.072922 
	C517.861511,215.368546 525.139954,229.917496 540.742310,231.042862 
	C553.008667,231.927628 565.972107,221.425293 568.105347,208.601837 
	C569.761475,198.646912 565.793823,190.658920 556.525940,186.854736 
	C547.514038,183.155594 539.353210,184.595490 531.094604,190.606628 
M418.051636,220.573334 
	C418.804169,214.750778 419.147949,208.836731 420.425110,203.131622 
	C421.683075,197.512314 419.513397,190.537888 414.653229,187.438782 
	C409.462982,184.129211 404.014496,183.612564 398.112976,185.261826 
	C396.124115,185.817627 393.712494,185.831772 391.729553,185.266891 
	C383.857422,183.024368 380.617645,185.013962 379.572021,193.195374 
	C378.293854,203.196457 377.083252,213.206635 375.724304,223.196671 
	C375.345276,225.982819 373.872070,229.030624 378.300171,229.770615 
	C384.267639,230.767883 388.374359,228.519882 388.701813,224.294800 
	C388.924927,221.416092 389.249084,218.539780 389.671722,215.683655 
	C390.024078,213.302292 391.330505,210.807236 390.905457,208.616470 
	C389.883759,203.350540 393.116760,200.196152 396.430267,197.898483 
	C398.515106,196.452789 402.303253,196.731964 405.130035,197.271286 
	C408.731476,197.958420 409.330414,201.322739 408.868591,204.419266 
	C407.911774,210.834930 406.501831,217.182877 405.538452,223.597748 
	C405.134491,226.287704 404.674011,229.622787 408.674133,230.179947 
	C416.292358,231.241074 418.738342,228.837738 418.051636,220.573334 
M443.112335,172.481934 
	C436.942749,172.751404 435.539948,173.947403 435.030396,180.377213 
	C434.786530,183.454178 433.626831,184.829468 430.527740,185.129684 
	C429.421906,185.236801 427.909302,186.467896 427.496155,187.538559 
	C424.804749,194.513351 424.888702,194.539825 432.075531,196.917175 
	C432.330322,197.001480 432.480560,197.401901 432.679535,197.654984 
	C431.102142,205.981598 430.581970,214.341537 430.456055,222.707443 
	C430.430237,224.424347 431.431030,226.687698 432.729309,227.797745 
	C437.321655,231.724243 446.548889,232.083023 451.460907,228.636566 
	C452.631836,227.814987 453.085938,225.971756 453.869751,224.598450 
	C451.141846,223.458466 453.437531,217.803741 448.074005,218.669769 
	C442.764923,219.527008 441.487122,217.789276 442.331940,212.511810 
	C442.568359,211.034988 442.798584,209.556915 443.007050,208.075958 
	C444.347504,198.553574 445.205444,197.716660 454.330109,195.712753 
	C455.455261,195.465668 456.915955,194.026886 457.152283,192.913483 
	C458.304657,187.484009 456.413269,185.276611 450.909668,184.986694 
	C449.652893,184.920502 448.406738,184.653046 446.849365,184.435394 
	C447.311005,181.593689 447.591949,179.138000 448.126801,176.738907 
	C448.968201,172.964569 447.233978,171.872650 443.112335,172.481934 
z"/>
<path fill="#041338" opacity="1.000000" stroke="none" 
	d="
M130.062698,202.126053 
	C130.724045,196.013474 134.396774,192.944138 141.079025,192.079224 
	C148.697495,192.103821 155.472748,192.217514 162.242401,192.071442 
	C165.458969,192.002029 168.664856,191.437286 171.875580,191.096939 
	C176.535645,189.439117 181.243713,183.773102 180.760223,180.404526 
	C179.856766,174.109863 175.699768,170.893951 168.494125,170.752350 
	C157.201538,170.530441 145.911423,170.143799 134.618134,170.019180 
	C131.082413,169.980148 129.342896,169.024796 129.796738,165.105408 
	C130.215973,161.484802 130.114105,157.803848 130.694244,154.255035 
	C132.750671,153.952850 134.354584,153.545135 135.958511,153.137405 
	C136.728821,153.112701 137.499146,153.088013 138.857544,153.399261 
	C141.316467,154.156052 143.181091,154.904572 145.059174,154.939987 
	C152.518326,155.080612 159.983337,155.086334 167.442474,154.945816 
	C169.695969,154.903351 171.937500,154.226624 174.184509,153.840439 
	C181.579681,153.855667 187.271210,157.590546 192.291428,162.462448 
	C200.924179,170.840195 201.124374,181.321304 197.999146,191.757690 
	C196.791870,195.789307 192.809357,199.131882 189.678818,202.392426 
	C187.795212,204.354263 185.116745,205.552948 181.605042,207.885223 
	C187.237411,208.640640 185.749146,218.502945 194.174500,214.382355 
	C195.495850,213.758667 196.304474,213.374603 197.113083,212.990555 
	C197.113083,212.990555 197.438782,212.947464 197.752930,213.151733 
	C198.351517,214.484451 198.319489,216.341202 198.971191,216.624359 
	C203.578262,218.626190 208.325668,220.305023 213.028305,222.086884 
	C208.764633,226.192886 204.284912,230.100922 200.293839,234.456696 
	C195.655411,239.518936 191.132446,244.751877 187.169617,250.343246 
	C184.884293,253.567688 187.342560,256.914520 191.452118,255.769608 
	C199.324158,253.576477 206.915436,250.375580 215.112396,247.390930 
	C215.898285,248.435394 216.655731,249.797760 216.378387,250.899643 
	C216.008301,252.369980 214.834305,253.637955 214.005585,254.992844 
	C214.005585,254.992844 214.004395,255.005310 213.618958,255.016968 
	C208.484970,257.992401 203.736420,260.956177 198.987885,263.919952 
	C198.956390,264.100220 198.924896,264.280457 198.666656,264.726013 
	C198.439911,264.991333 198.076492,264.979370 198.076492,264.979370 
	C197.894592,264.976318 197.712677,264.973267 196.975586,264.846985 
	C192.947311,266.150635 189.474243,267.577545 186.001175,269.004456 
	C186.001175,269.004456 186.000000,269.000000 185.740204,269.003418 
	C185.306061,269.009491 185.131714,269.012115 184.957367,269.014740 
	C184.957367,269.014740 184.476379,269.001556 184.003876,268.852173 
	C182.695587,269.086517 181.859787,269.470245 181.023987,269.854004 
	C165.853989,273.887787 151.273727,270.573853 136.851746,266.102844 
	C132.043228,264.612152 131.597351,262.064270 134.798706,257.973511 
	C137.200043,254.905014 139.569870,251.811874 142.378311,248.363190 
	C147.338760,248.948196 147.697800,244.341034 150.148804,242.521469 
	C159.586746,235.514908 169.115829,228.631210 178.598648,221.684937 
	C179.530975,221.001984 180.379013,220.203964 181.266159,219.459351 
	C180.965958,219.040527 180.665771,218.621704 180.365570,218.202881 
	C179.143433,218.998230 178.002609,219.989975 176.678192,220.538254 
	C175.090546,221.195496 172.929352,222.329895 171.749039,221.754654 
	C168.385269,220.115280 165.453644,217.614868 162.238022,215.638672 
	C159.040848,213.673798 156.788177,208.963791 152.153381,210.874252 
	C147.555969,212.769318 149.116318,217.367615 149.011566,220.996948 
	C148.735794,230.553452 151.207336,240.774429 141.995651,247.994904 
	C139.072449,250.521988 136.033722,252.930084 133.266174,255.617447 
	C131.379593,257.449341 129.872147,259.671631 128.307190,261.582611 
	C97.152664,243.847183 80.988815,206.349472 93.104263,170.011917 
	C93.594063,168.501007 93.756683,167.623932 93.919296,166.746857 
	C93.919296,166.746857 93.974091,166.443924 94.339897,166.321548 
	C94.967659,167.347595 95.423546,168.490662 95.455490,169.645432 
	C95.554276,173.217468 95.491570,176.793961 95.491570,180.368729 
	C96.119614,180.553894 96.747658,180.739059 97.375702,180.924240 
	C98.872314,178.546402 100.174393,176.011703 101.925819,173.839325 
	C103.380859,172.034546 105.364525,170.655945 107.114029,169.088577 
	C105.410301,175.248947 102.840210,181.319290 102.188820,187.588989 
	C100.951103,199.501877 101.661514,211.279938 109.346512,221.546341 
	C112.962837,226.377426 115.617012,231.963669 119.468498,236.571350 
	C121.984550,239.581436 125.867935,241.448578 129.455353,244.179382 
	C129.778839,244.951385 129.785797,245.371689 129.792755,245.791992 
	C129.957306,245.775818 130.249756,245.797318 130.267273,245.737839 
	C130.534393,244.830658 130.971817,243.913406 130.974136,242.997513 
	C131.006760,230.101135 130.993652,217.204529 130.927490,204.308319 
	C130.923752,203.579437 130.363785,202.853409 130.062698,202.126053 
M166.765106,255.697922 
	C168.643661,252.178558 170.522217,248.659195 172.400787,245.139832 
	C172.026154,244.828079 171.651520,244.516342 171.276886,244.204605 
	C164.706924,246.678452 163.424896,254.161087 158.821228,258.907867 
	C162.851227,261.775696 164.410156,258.385620 166.765106,255.697922 
M99.502655,182.524811 
	C99.502655,182.524811 99.489555,182.486801 99.502655,182.524811 
z"/>
<path fill="#061437" opacity="1.000000" stroke="none" 
	d="
M278.119202,194.555756 
	C278.964783,186.425446 279.626312,178.683212 280.754333,171.009567 
	C280.922211,169.867554 283.267212,168.242081 284.637451,168.209625 
	C294.111084,167.985229 303.630066,167.608521 313.063202,168.280991 
	C323.991547,169.060043 330.022858,179.515442 328.071228,190.082153 
	C326.573730,198.189804 322.644653,204.055328 315.137146,207.673889 
	C314.294830,208.079895 313.772461,210.948578 314.317444,212.099564 
	C316.004608,215.662720 318.410645,218.877380 320.278015,222.366272 
	C321.465912,224.585571 322.192688,227.051697 323.261627,229.748764 
	C318.343750,229.748764 314.414948,229.875610 310.506805,229.647659 
	C309.669464,229.598831 308.660400,228.403748 308.151062,227.499741 
	C305.291321,222.423904 302.985229,216.960297 299.548615,212.327545 
	C298.388153,210.763184 294.405182,210.684036 291.844666,211.000046 
	C290.361145,211.183090 288.464417,213.283905 287.936188,214.906601 
	C286.609833,218.981369 286.401215,223.440353 284.917084,227.438141 
	C283.143463,232.215668 278.539490,229.371323 275.244781,229.801193 
	C274.710541,229.870895 272.937744,226.382172 273.091949,224.659500 
	C273.520081,219.876587 274.692200,215.162766 275.514496,210.411987 
	C276.404663,205.269043 277.231750,200.115189 278.119202,194.555756 
M291.689453,184.723358 
	C291.527802,186.847549 291.553650,189.006271 291.170044,191.089584 
	C289.915375,197.903961 289.858063,197.893585 296.515625,198.412216 
	C298.486877,198.565781 300.456116,198.805984 302.429993,198.854568 
	C309.021454,199.016830 313.076019,195.886505 315.389801,189.692642 
	C316.890930,185.674133 315.483582,182.448563 312.035095,181.775909 
	C306.156464,180.629211 300.018372,180.698532 293.984253,180.614090 
	C293.262512,180.604004 292.509613,182.817856 291.689453,184.723358 
z"/>
<path fill="#0E64E6" opacity="1.000000" stroke="none" 
	d="
M519.101868,198.055344 
	C521.818787,205.128510 518.049255,211.283478 514.593323,216.243240 
	C510.675354,221.866089 505.278809,226.827438 498.015686,229.137512 
	C488.696625,232.101501 479.702484,231.835724 471.398743,226.967377 
	C465.131866,223.293198 461.322815,216.942108 460.168579,209.882889 
	C456.817322,189.386826 470.930176,170.905792 489.774323,167.608917 
	C499.446625,165.916702 509.726959,167.645844 516.476868,176.916519 
	C516.834106,177.407104 517.534973,177.640793 518.056213,178.020950 
	C518.394653,178.267792 518.697510,178.563477 519.294678,179.076401 
	C515.752991,181.704544 512.442078,184.161377 510.088654,185.907761 
	C504.517395,183.828659 499.378815,180.442184 494.104980,180.216492 
	C477.843018,179.520523 467.129974,199.187042 474.880219,212.245987 
	C476.355896,214.732422 479.522034,217.266266 482.248840,217.716858 
	C486.493469,218.418259 491.040070,217.455002 495.439972,217.011429 
	C500.543884,216.496857 502.501617,212.506226 505.030792,207.954269 
	C501.158356,207.954269 497.912781,207.964890 494.667267,207.951981 
	C488.697479,207.928207 488.663696,207.893143 490.044952,202.252457 
	C490.315186,201.148956 490.724030,200.079407 491.616547,198.567688 
	C501.143402,198.112564 510.122620,198.083954 519.101868,198.055344 
z"/>
<path fill="#061437" opacity="1.000000" stroke="none" 
	d="
M327.316528,209.050415 
	C329.100220,196.650970 336.183502,188.486847 347.385193,185.284927 
	C359.988129,181.682465 374.423309,188.340881 372.776611,205.114838 
	C372.664215,206.260040 372.842102,207.433884 372.886719,208.594330 
	C373.004761,211.666138 371.757385,213.070877 368.459198,213.001877 
	C360.811890,212.841873 353.158142,212.931000 345.507996,213.014206 
	C343.822510,213.032547 342.141296,213.445633 340.239288,213.707001 
	C343.658569,220.856094 350.436127,220.178329 357.975922,217.803146 
	C362.202789,216.471603 366.162750,218.111893 367.314728,222.214127 
	C367.586151,223.180756 367.112823,224.914520 366.358398,225.526489 
	C356.891266,233.205673 338.119598,233.203552 331.052765,223.408325 
	C329.597504,221.391251 328.762512,218.809265 328.113953,216.362442 
	C327.527985,214.151657 327.587921,211.769638 327.316528,209.050415 
M345.076324,202.361252 
	C350.168274,202.278687 355.260223,202.196136 360.931122,202.104187 
	C357.968018,195.527145 351.422913,194.173752 346.680542,197.848404 
	C343.816925,200.067276 343.816925,200.067291 345.076324,202.361252 
z"/>
<path fill="#0E64E6" opacity="1.000000" stroke="none" 
	d="
M531.360962,190.347092 
	C539.353210,184.595490 547.514038,183.155594 556.525940,186.854736 
	C565.793823,190.658920 569.761475,198.646912 568.105347,208.601837 
	C565.972107,221.425293 553.008667,231.927628 540.742310,231.042862 
	C525.139954,229.917496 517.861511,215.368546 523.181763,203.072922 
	C525.112244,198.611511 528.416992,194.744736 531.360962,190.347092 
M556.081482,202.997711 
	C554.772949,198.829697 551.862549,196.374573 547.607239,196.029770 
	C543.219421,195.674225 537.164246,199.267395 536.113647,202.773743 
	C534.650452,207.657242 533.407898,212.752609 536.925537,217.278534 
	C537.764526,218.358063 539.787170,218.789093 541.336060,219.000275 
	C549.898926,220.167679 557.201904,212.323883 556.081482,202.997711 
z"/>
<path fill="#071437" opacity="1.000000" stroke="none" 
	d="
M418.040009,220.988953 
	C418.738342,228.837738 416.292358,231.241074 408.674133,230.179947 
	C404.674011,229.622787 405.134491,226.287704 405.538452,223.597748 
	C406.501831,217.182877 407.911774,210.834930 408.868591,204.419266 
	C409.330414,201.322739 408.731476,197.958420 405.130035,197.271286 
	C402.303253,196.731964 398.515106,196.452789 396.430267,197.898483 
	C393.116760,200.196152 389.883759,203.350540 390.905457,208.616470 
	C391.330505,210.807236 390.024078,213.302292 389.671722,215.683655 
	C389.249084,218.539780 388.924927,221.416092 388.701813,224.294800 
	C388.374359,228.519882 384.267639,230.767883 378.300171,229.770615 
	C373.872070,229.030624 375.345276,225.982819 375.724304,223.196671 
	C377.083252,213.206635 378.293854,203.196457 379.572021,193.195374 
	C380.617645,185.013962 383.857422,183.024368 391.729553,185.266891 
	C393.712494,185.831772 396.124115,185.817627 398.112976,185.261826 
	C404.014496,183.612564 409.462982,184.129211 414.653229,187.438782 
	C419.513397,190.537888 421.683075,197.512314 420.425110,203.131622 
	C419.147949,208.836731 418.804169,214.750778 418.040009,220.988953 
z"/>
<path fill="#071437" opacity="1.000000" stroke="none" 
	d="
M443.472473,172.390991 
	C447.233978,171.872650 448.968201,172.964569 448.126801,176.738907 
	C447.591949,179.138000 447.311005,181.593689 446.849365,184.435394 
	C448.406738,184.653046 449.652893,184.920502 450.909668,184.986694 
	C456.413269,185.276611 458.304657,187.484009 457.152283,192.913483 
	C456.915955,194.026886 455.455261,195.465668 454.330109,195.712753 
	C445.205444,197.716660 444.347504,198.553574 443.007050,208.075958 
	C442.798584,209.556915 442.568359,211.034988 442.331940,212.511810 
	C441.487122,217.789276 442.764923,219.527008 448.074005,218.669769 
	C453.437531,217.803741 451.141846,223.458466 453.869751,224.598450 
	C453.085938,225.971756 452.631836,227.814987 451.460907,228.636566 
	C446.548889,232.083023 437.321655,231.724243 432.729309,227.797745 
	C431.431030,226.687698 430.430237,224.424347 430.456055,222.707443 
	C430.581970,214.341537 431.102142,205.981598 432.679535,197.654984 
	C432.480560,197.401901 432.330322,197.001480 432.075531,196.917175 
	C424.888702,194.539825 424.804749,194.513351 427.496155,187.538559 
	C427.909302,186.467896 429.421906,185.236801 430.527740,185.129684 
	C433.626831,184.829468 434.786530,183.454178 435.030396,180.377213 
	C435.539948,173.947403 436.942749,172.751404 443.472473,172.390991 
z"/>
<path fill="#0E76ED" opacity="1.000000" stroke="none" 
	d="
M222.950134,144.890869 
	C227.915680,151.352051 232.881241,157.813248 238.686798,165.367432 
	C232.813522,167.227127 228.677200,168.851898 224.387131,169.685074 
	C223.241013,169.907684 221.226761,167.972855 220.303040,166.572159 
	C218.006973,163.090439 216.109741,159.345703 214.188721,155.203690 
	C214.565887,154.485153 214.785919,154.250061 215.174591,153.699722 
	C218.118286,149.633347 218.365997,145.922302 215.614822,141.916428 
	C215.042328,141.082855 215.829819,139.315231 216.229919,137.986115 
	C216.469269,137.994171 216.948074,137.981873 216.948074,137.981873 
	C218.249741,139.135834 219.551407,140.289795 220.827454,141.970551 
	C221.517929,143.295181 222.234024,144.093033 222.950134,144.890869 
z"/>
<path fill="#061741" opacity="1.000000" stroke="none" 
	d="
M107.461182,169.030197 
	C105.364525,170.655945 103.380859,172.034546 101.925819,173.839325 
	C100.174393,176.011703 98.872314,178.546402 97.375702,180.924240 
	C96.747658,180.739059 96.119614,180.553894 95.491570,180.368729 
	C95.491570,176.793961 95.554276,173.217468 95.455490,169.645432 
	C95.423546,168.490662 94.967659,167.347595 94.401718,166.180573 
	C97.789215,159.841354 101.480698,153.520721 105.461365,147.397430 
	C105.290291,148.784286 104.768738,149.954437 104.385620,151.168289 
	C103.927711,152.619049 103.588242,154.107193 103.197464,155.579132 
	C104.847191,155.941971 106.491615,156.570038 108.147926,156.603073 
	C110.412949,156.648254 112.686996,156.240982 114.813072,156.315796 
	C114.461281,157.434311 114.253593,158.264648 114.045914,159.095001 
	C111.966728,162.387268 109.887535,165.679550 107.461182,169.030197 
z"/>
<path fill="#0B59D1" opacity="1.000000" stroke="none" 
	d="
M200.924210,143.053284 
	C195.273422,140.160339 189.654266,137.202682 183.951370,134.416412 
	C182.372070,133.644821 180.543900,133.382568 178.513672,132.559540 
	C177.679214,131.503387 177.276337,130.644180 176.624237,130.066177 
	C172.117905,126.072098 167.559647,122.136635 163.018066,118.182327 
	C167.933884,118.263062 172.918060,117.865601 177.746704,118.556030 
	C182.799347,119.278481 187.702515,121.046402 192.488159,122.808060 
	C189.217712,123.027565 186.130157,122.796349 181.503098,122.449844 
	C186.467239,127.796516 190.483505,132.156265 194.540451,136.477844 
	C196.630997,138.704742 198.793961,140.863647 200.924210,143.053284 
z"/>
<path fill="#0D2B65" opacity="1.000000" stroke="none" 
	d="
M135.140625,139.097992 
	C130.326233,143.014130 125.511833,146.930267 120.276680,150.720093 
	C119.128708,150.029953 118.463310,149.098633 117.663895,148.964188 
	C113.598412,148.280426 111.254700,146.111053 110.947754,141.919220 
	C113.618889,138.855637 115.981796,135.422348 119.064423,132.852356 
	C121.294701,130.992981 124.480309,130.279495 127.508904,129.335205 
	C124.892662,132.290695 125.369392,134.974487 128.381500,136.864777 
	C130.333099,138.089523 132.867416,138.385727 135.140625,139.097992 
z"/>
<path fill="#0E64E6" opacity="1.000000" stroke="none" 
	d="
M201.070709,143.360016 
	C198.793961,140.863647 196.630997,138.704742 194.540451,136.477844 
	C190.483505,132.156265 186.467239,127.796516 181.503098,122.449844 
	C186.130157,122.796349 189.217712,123.027565 192.640228,123.098389 
	C198.216293,125.732506 203.457397,128.527023 208.480591,131.656158 
	C206.421188,132.873322 204.579712,133.755875 202.738220,134.638428 
	C204.497971,137.649658 201.253983,141.563232 205.025406,144.513901 
	C207.830597,146.708603 209.683609,150.120346 211.960693,152.990051 
	C208.379532,149.882278 204.798370,146.774521 201.070709,143.360016 
z"/>
<path fill="#073881" opacity="1.000000" stroke="none" 
	d="
M135.498428,139.031189 
	C132.867416,138.385727 130.333099,138.089523 128.381500,136.864777 
	C125.369392,134.974487 124.892662,132.290695 127.888832,129.315811 
	C127.999741,129.016205 127.996391,128.991928 128.196548,128.851532 
	C128.631973,128.494461 128.819794,128.242432 128.960144,127.955032 
	C128.960144,127.955032 128.986252,127.976089 129.245758,127.879684 
	C129.990005,127.488892 130.474762,127.194511 130.959518,126.900131 
	C130.959518,126.900131 130.981400,126.960770 131.143158,126.809792 
	C131.549545,126.442657 131.763474,126.199493 131.946716,125.929321 
	C131.946716,125.929321 131.923187,125.934204 132.204865,125.836601 
	C132.963470,125.417526 133.440384,125.096062 133.917282,124.774582 
	C135.995880,123.842094 138.074463,122.909607 140.702209,122.041489 
	C142.678925,130.102280 144.801071,131.521820 154.576416,130.752594 
	C156.604492,130.897736 158.225647,131.037338 159.873779,131.367188 
	C159.900742,131.557434 159.972153,131.935028 159.972153,131.935028 
	C151.373749,132.357758 143.386551,134.877335 135.498428,139.031189 
z"/>
<path fill="#064FC0" opacity="1.000000" stroke="none" 
	d="
M159.846802,131.176941 
	C158.225647,131.037338 156.604492,130.897736 154.457214,130.439255 
	C153.206894,128.848221 152.598877,127.490654 151.737671,126.319206 
	C148.588684,122.035797 149.121796,120.905777 154.493668,120.046944 
	C157.035034,119.640640 159.506729,118.798439 162.009979,118.153732 
	C162.178879,118.127777 162.347763,118.101822 162.767365,118.129089 
	C167.559647,122.136635 172.117905,126.072098 176.624237,130.066177 
	C177.276337,130.644180 177.679214,131.503387 178.124588,132.492004 
	C175.654434,132.480865 173.257095,132.210190 170.245575,131.574036 
	C166.369858,131.198044 163.108337,131.187485 159.846802,131.176941 
z"/>
<path fill="#0E64E6" opacity="1.000000" stroke="none" 
	d="
M244.694885,201.918518 
	C243.335190,200.726746 241.975479,199.534973 240.788864,198.494919 
	C238.685104,200.284042 236.661819,202.004730 234.013550,203.875580 
	C230.547806,201.660538 227.707047,199.295334 224.866302,196.930145 
	C226.733185,194.459991 228.600082,191.989822 230.646225,189.282471 
	C228.508179,187.798325 226.212036,186.204407 222.892517,183.900116 
	C225.703979,182.744431 227.487579,182.011261 229.750214,181.470001 
	C230.815933,182.082581 231.402649,182.503250 231.769760,183.118652 
	C231.287979,184.312500 230.627319,185.410004 230.844788,186.290680 
	C231.328705,188.250519 232.251953,190.101898 232.957703,192.020416 
	C232.919250,192.043335 233.002670,192.003922 233.320282,191.947327 
	C235.008759,192.479736 236.436035,192.965591 237.739243,193.678314 
	C240.847351,195.378128 243.896927,197.185043 246.875244,199.249756 
	C246.085190,200.340057 245.390045,201.129288 244.694885,201.918518 
z"/>
<path fill="#076CE9" opacity="1.000000" stroke="none" 
	d="
M212.045258,153.245422 
	C209.683609,150.120346 207.830597,146.708603 205.025406,144.513901 
	C201.253983,141.563232 204.497971,137.649658 202.738220,134.638428 
	C204.579712,133.755875 206.421188,132.873322 208.644653,131.962830 
	C209.026642,131.934891 209.037796,131.961639 209.143127,132.301178 
	C210.810226,133.399521 212.371994,134.158310 213.933762,134.917099 
	C213.933762,134.917099 214.095139,134.892731 214.233978,135.138611 
	C214.561234,135.593552 214.773514,135.774689 215.009644,135.927902 
	C215.009644,135.927902 215.073837,135.926117 215.205841,136.131622 
	C215.530762,136.558044 215.748245,136.751343 215.990295,136.917007 
	C215.990295,136.917007 216.065903,136.922424 216.038910,137.204285 
	C216.011932,137.486145 215.990570,137.978073 215.990570,137.978073 
	C215.829819,139.315231 215.042328,141.082855 215.614822,141.916428 
	C218.365997,145.922302 218.118286,149.633347 214.847107,153.702637 
	C213.893936,154.017548 213.457672,154.033737 213.021393,154.049911 
	C212.724213,153.866867 212.427017,153.683823 212.045258,153.245422 
z"/>
<path fill="#0C204C" opacity="1.000000" stroke="none" 
	d="
M213.285858,221.979126 
	C208.325668,220.305023 203.578262,218.626190 198.971191,216.624359 
	C198.319489,216.341202 198.351517,214.484451 197.916809,213.140137 
	C200.251144,211.239716 202.735779,209.555206 205.455231,208.200745 
	C204.593887,210.730530 204.984833,211.854248 207.726883,212.011414 
	C209.827774,212.131836 212.478088,212.172211 213.853867,213.401337 
	C216.482498,215.749680 219.073822,215.962509 222.123795,215.181046 
	C219.263672,217.411163 216.403549,219.641266 213.285858,221.979126 
z"/>
<path fill="#071437" opacity="1.000000" stroke="none" 
	d="
M214.342392,254.913025 
	C214.834305,253.637955 216.008301,252.369980 216.378387,250.899643 
	C216.655731,249.797760 215.898285,248.435394 215.301666,247.106354 
	C221.920990,239.995865 228.840210,232.968063 235.684631,226.016235 
	C237.765579,229.839798 224.156509,248.900253 214.342392,254.913025 
z"/>
<path fill="#0C204C" opacity="1.000000" stroke="none" 
	d="
M110.672768,142.074524 
	C111.254700,146.111053 113.598412,148.280426 117.663895,148.964188 
	C118.463310,149.098633 119.128708,150.029953 119.964935,150.860321 
	C119.258766,152.034195 118.443588,152.941528 117.052078,154.034088 
	C115.998360,154.800888 115.520973,155.382431 115.022156,155.980133 
	C115.000732,155.996292 114.957176,156.027649 114.957176,156.027649 
	C112.686996,156.240982 110.412949,156.648254 108.147926,156.603073 
	C106.491615,156.570038 104.847191,155.941971 103.197464,155.579132 
	C103.588242,154.107193 103.927711,152.619049 104.385620,151.168289 
	C104.768738,149.954437 105.290291,148.784286 105.749039,147.230240 
	C105.747543,146.865707 105.886978,146.834259 106.121567,146.722107 
	C106.587357,146.398651 106.792519,146.164566 106.971634,145.907669 
	C108.113686,144.681717 109.255730,143.455780 110.672768,142.074524 
z"/>
<path fill="#0D2B65" opacity="1.000000" stroke="none" 
	d="
M222.134247,215.134689 
	C219.073822,215.962509 216.482498,215.749680 213.853867,213.401337 
	C212.478088,212.172211 209.827774,212.131836 207.726883,212.011414 
	C204.984833,211.854248 204.593887,210.730530 205.812424,208.249252 
	C205.934799,207.967712 206.387985,207.940475 206.804626,207.756012 
	C207.471115,207.379379 207.718353,207.183960 207.963013,206.985260 
	C209.400284,206.320038 210.837555,205.654816 212.739441,205.246429 
	C216.662460,210.221939 222.043091,209.905975 227.023941,210.845856 
	C227.071457,210.930206 227.089706,211.122971 227.089706,211.122971 
	C225.983887,212.023758 224.878067,212.924545 223.269653,214.094864 
	C222.501511,214.547974 222.270660,214.767944 222.074493,215.024292 
	C222.074493,215.024292 222.144714,215.088333 222.134247,215.134689 
z"/>
<path fill="#0A43A0" opacity="1.000000" stroke="none" 
	d="
M161.563141,118.088837 
	C159.506729,118.798439 157.035034,119.640640 154.493668,120.046944 
	C149.121796,120.905777 148.588684,122.035797 151.737671,126.319206 
	C152.598877,127.490654 153.206894,128.848221 154.050308,130.433716 
	C144.801071,131.521820 142.678925,130.102280 141.057159,122.007370 
	C147.614075,120.613914 154.365189,119.318924 161.563141,118.088837 
z"/>
<path fill="#0A43A0" opacity="1.000000" stroke="none" 
	d="
M224.516281,196.949188 
	C227.707047,199.295334 230.547806,201.660538 233.711670,204.042297 
	C231.920776,206.301361 229.806778,208.543869 227.391235,210.954666 
	C227.089706,211.122971 227.071457,210.930206 226.980194,210.499542 
	C225.441025,208.929459 223.976089,207.810898 222.549438,206.645462 
	C220.608200,205.059662 218.696198,203.438095 216.771667,201.831863 
	C219.236526,200.210663 221.701401,198.589447 224.516281,196.949188 
z"/>
<path fill="#2C84DA" opacity="1.000000" stroke="none" 
	d="
M244.952148,202.254608 
	C245.390045,201.129288 246.085190,200.340057 246.937042,198.839935 
	C247.640549,192.678299 248.291260,187.235245 248.694824,181.773926 
	C248.934204,178.534576 247.110458,177.758713 244.187881,178.572723 
	C240.839127,179.505463 237.447906,180.285812 234.044556,181.088028 
	C234.013962,181.043686 233.951492,180.955902 233.951492,180.955902 
	C238.396805,179.252640 242.896774,177.677032 247.269547,175.804443 
	C250.580399,174.386612 251.191925,176.165390 250.963684,178.697220 
	C250.246582,186.651230 249.366745,194.590576 248.524109,202.786789 
	C247.431915,202.722168 246.320663,202.656433 244.952148,202.254608 
z"/>
<path fill="#061741" opacity="1.000000" stroke="none" 
	d="
M173.826477,153.605026 
	C171.937500,154.226624 169.695969,154.903351 167.442474,154.945816 
	C159.983337,155.086334 152.518326,155.080612 145.059174,154.939987 
	C143.181091,154.904572 141.316467,154.156052 139.242493,153.422485 
	C150.515701,153.196365 161.992081,153.282990 173.826477,153.605026 
z"/>
<path fill="#073881" opacity="1.000000" stroke="none" 
	d="
M216.511490,202.004089 
	C218.696198,203.438095 220.608200,205.059662 222.549438,206.645462 
	C223.976089,207.810898 225.441025,208.929459 226.932678,210.415207 
	C222.043091,209.905975 216.662460,210.221939 213.088806,205.213898 
	C214.066147,204.008453 215.158722,203.092392 216.511490,202.004089 
z"/>
<path fill="#666D80" opacity="1.000000" stroke="none" 
	d="
M130.037491,202.583038 
	C130.363785,202.853409 130.923752,203.579437 130.927490,204.308319 
	C130.993652,217.204529 131.006760,230.101135 130.974136,242.997513 
	C130.971817,243.913406 130.534393,244.830658 130.267273,245.737839 
	C130.249756,245.797318 129.957306,245.775818 129.792755,245.791992 
	C129.785797,245.371689 129.778839,244.951385 129.804810,244.186966 
	C129.894562,241.196808 129.995712,238.550858 130.000488,235.904724 
	C130.020279,224.949844 130.010925,213.994919 130.037491,202.583038 
z"/>
<path fill="#071437" opacity="1.000000" stroke="none" 
	d="
M199.374146,263.922424 
	C203.736420,260.956177 208.484970,257.992401 213.612671,255.016769 
	C209.248016,257.978241 204.504227,260.951569 199.374146,263.922424 
z"/>
<path fill="#666D80" opacity="1.000000" stroke="none" 
	d="
M171.414734,191.071564 
	C168.664856,191.437286 165.458969,192.002029 162.242401,192.071442 
	C155.472748,192.217514 148.697495,192.103821 141.456665,192.070526 
	C142.153076,191.678604 143.315369,191.003952 144.481964,190.996429 
	C153.305466,190.939377 162.129807,191.013199 171.414734,191.071564 
z"/>
<path fill="#2C84DA" opacity="1.000000" stroke="none" 
	d="
M518.876099,197.670975 
	C510.122620,198.083954 501.143402,198.112564 491.716461,198.200470 
	C491.808685,197.843353 492.349243,197.063889 492.888458,197.064835 
	C501.475861,197.079788 510.063110,197.194595 518.876099,197.670975 
z"/>
<path fill="#071437" opacity="1.000000" stroke="none" 
	d="
M186.402252,268.991882 
	C189.474243,267.577545 192.947311,266.150635 196.702698,264.850403 
	C193.591125,266.311188 190.197220,267.645233 186.402252,268.991882 
z"/>
<path fill="#0A43A0" opacity="1.000000" stroke="none" 
	d="
M159.873779,131.367188 
	C163.108337,131.187485 166.369858,131.198044 169.838562,131.513611 
	C166.994141,131.869949 163.942551,131.921249 160.431549,131.953796 
	C159.972153,131.935028 159.900742,131.557434 159.873779,131.367188 
z"/>
<path fill="#061741" opacity="1.000000" stroke="none" 
	d="
M135.581848,153.110275 
	C134.354584,153.545135 132.750671,153.952850 131.006760,154.087036 
	C132.312912,153.570053 133.759064,153.326599 135.581848,153.110275 
z"/>
<path fill="#0E64E6" opacity="1.000000" stroke="none" 
	d="
M213.805771,134.611511 
	C212.371994,134.158310 210.810226,133.399521 209.154846,132.306152 
	C210.600082,132.749710 212.138931,133.527817 213.805771,134.611511 
z"/>
<path fill="#076CE9" opacity="1.000000" stroke="none" 
	d="
M222.934875,144.584045 
	C222.234024,144.093033 221.517929,143.295181 220.946548,142.277451 
	C221.700714,142.797455 222.310165,143.537354 222.934875,144.584045 
z"/>
<path fill="#2C84DA" opacity="1.000000" stroke="none" 
	d="
M231.989349,182.923889 
	C231.402649,182.503250 230.815933,182.082581 230.108215,181.410217 
	C231.044327,181.107239 232.101425,181.055984 233.555023,180.980316 
	C233.951492,180.955902 234.013962,181.043686 233.872681,181.305511 
	C233.150711,182.019531 232.570023,182.471710 231.989349,182.923889 
z"/>
<path fill="#071437" opacity="1.000000" stroke="none" 
	d="
M181.343262,269.861816 
	C181.859787,269.470245 182.695587,269.086517 183.763336,268.848511 
	C183.217712,269.286041 182.440125,269.577850 181.343262,269.861816 
z"/>
<path fill="#0C204C" opacity="1.000000" stroke="none" 
	d="
M114.351181,158.947906 
	C114.253593,158.264648 114.461281,157.434311 114.813072,156.315796 
	C114.957176,156.027649 115.000732,155.996292 115.305588,155.987442 
	C115.799782,155.985611 115.989113,155.992630 116.178452,155.999664 
	C115.671127,156.933395 115.163788,157.867111 114.351181,158.947906 
z"/>
<path fill="#061741" opacity="1.000000" stroke="none" 
	d="
M116.347816,155.784836 
	C115.989113,155.992630 115.799782,155.985611 115.327019,155.971283 
	C115.520973,155.382431 115.998360,154.800888 116.750954,154.115234 
	C116.856506,154.530762 116.686844,155.050385 116.347816,155.784836 
z"/>
<path fill="#061741" opacity="1.000000" stroke="none" 
	d="
M93.717606,167.024979 
	C93.756683,167.623932 93.594063,168.501007 93.253174,169.658646 
	C93.221909,169.060501 93.368919,168.181808 93.717606,167.024979 
z"/>
<path fill="#0C204C" opacity="1.000000" stroke="none" 
	d="
M196.733109,212.934708 
	C196.304474,213.374603 195.495850,213.758667 194.343903,214.164703 
	C194.784760,213.750763 195.568954,213.314804 196.733109,212.934708 
z"/>
<path fill="#0E64E6" opacity="1.000000" stroke="none" 
	d="
M213.078003,154.285889 
	C213.457672,154.033737 213.893936,154.017548 214.657700,153.998444 
	C214.785919,154.250061 214.565887,154.485153 214.134323,154.849457 
	C213.589783,154.982162 213.320129,154.823425 213.078003,154.285889 
z"/>
<path fill="#0D2B65" opacity="1.000000" stroke="none" 
	d="
M130.659241,126.934067 
	C130.474762,127.194511 129.990005,127.488892 129.230621,127.863541 
	C129.423645,127.618538 129.891312,127.293274 130.659241,126.934067 
z"/>
<path fill="#0D2B65" opacity="1.000000" stroke="none" 
	d="
M133.625732,124.846344 
	C133.440384,125.096062 132.963470,125.417526 132.206970,125.823135 
	C132.396317,125.577545 132.865250,125.247818 133.625732,124.846344 
z"/>
<path fill="#0E64E6" opacity="1.000000" stroke="none" 
	d="
M214.958282,135.698700 
	C214.773514,135.774689 214.561234,135.593552 214.246887,135.219177 
	C214.472870,135.022232 214.734848,135.160767 214.958282,135.698700 
z"/>
<path fill="#0C204C" opacity="1.000000" stroke="none" 
	d="
M222.287155,214.912674 
	C222.270660,214.767944 222.501511,214.547974 222.978333,214.250290 
	C222.990646,214.389938 222.760712,214.611572 222.287155,214.912674 
z"/>
<path fill="#0D2B65" opacity="1.000000" stroke="none" 
	d="
M128.753357,128.079102 
	C128.819794,128.242432 128.631973,128.494461 128.207993,128.853607 
	C128.112305,128.676758 128.288071,128.412445 128.753357,128.079102 
z"/>
<path fill="#0E64E6" opacity="1.000000" stroke="none" 
	d="
M215.938446,136.680313 
	C215.748245,136.751343 215.530762,136.558044 215.204056,136.163666 
	C215.427597,135.987930 215.699707,136.139053 215.938446,136.680313 
z"/>
<path fill="#0C204C" opacity="1.000000" stroke="none" 
	d="
M207.713638,207.029327 
	C207.718353,207.183960 207.471115,207.379379 207.025208,207.702332 
	C207.040833,207.579880 207.252548,207.326630 207.713638,207.029327 
z"/>
<path fill="#0D2B65" opacity="1.000000" stroke="none" 
	d="
M131.713867,126.030075 
	C131.763474,126.199493 131.549545,126.442657 131.111099,126.806450 
	C131.105194,126.679665 131.293091,126.405251 131.713867,126.030075 
z"/>
<path fill="#0E64E6" opacity="1.000000" stroke="none" 
	d="
M216.229919,137.986115 
	C215.990570,137.978073 216.011932,137.486145 216.036728,137.242126 
	C216.415024,137.029099 216.681717,137.197495 216.904846,137.742569 
	C216.948074,137.981873 216.469269,137.994171 216.229919,137.986115 
z"/>
<path fill="#061741" opacity="1.000000" stroke="none" 
	d="
M106.775421,146.040497 
	C106.792519,146.164566 106.587357,146.398651 106.180054,146.763184 
	C106.133865,146.620850 106.325615,146.373154 106.775421,146.040497 
z"/>
<path fill="#071437" opacity="1.000000" stroke="none" 
	d="
M198.154541,265.062897 
	C198.076492,264.979370 198.439911,264.991333 198.620209,264.996552 
	C198.800491,265.001770 198.544617,265.201843 198.544617,265.201843 
	C198.544617,265.201843 198.232590,265.146423 198.154541,265.062897 
z"/>
<path fill="#071437" opacity="1.000000" stroke="none" 
	d="
M185.077682,269.107513 
	C185.131714,269.012115 185.306061,269.009491 185.741989,269.004272 
	C186.003555,269.001709 185.629196,269.243591 185.629196,269.243591 
	C185.629196,269.243591 185.197998,269.200287 185.077682,269.107513 
z"/>
<path fill="#000000" opacity="1.000000" stroke="none" 
	d="
M141.998169,247.997803 
	C151.207336,240.774429 148.735794,230.553452 149.011566,220.996948 
	C149.116318,217.367615 147.555969,212.769318 152.153381,210.874252 
	C156.788177,208.963791 159.040848,213.673798 162.238022,215.638672 
	C165.453644,217.614868 168.385269,220.115280 171.749039,221.754654 
	C172.929352,222.329895 175.090546,221.195496 176.678192,220.538254 
	C178.002609,219.989975 179.143433,218.998230 180.365570,218.202881 
	C180.665771,218.621704 180.965958,219.040527 181.266159,219.459351 
	C180.379013,220.203964 179.530975,221.001984 178.598648,221.684937 
	C169.115829,228.631210 159.586746,235.514908 150.148804,242.521469 
	C147.697800,244.341034 147.338760,248.948196 142.406250,248.003159 
	C142.009598,248.009659 142.000671,248.000702 141.998169,247.997803 
z"/>
<path fill="#000000" opacity="1.000000" stroke="none" 
	d="
M166.580017,255.965942 
	C164.410156,258.385620 162.851227,261.775696 158.821228,258.907867 
	C163.424896,254.161087 164.706924,246.678452 171.276886,244.204605 
	C171.651520,244.516342 172.026154,244.828079 172.400787,245.139832 
	C170.522217,248.659195 168.643661,252.178558 166.580017,255.965942 
z"/>
<path fill="#061741" opacity="1.000000" stroke="none" 
	d="
M99.496109,182.505798 
	C99.489555,182.486801 99.502655,182.524811 99.496109,182.505798 
z"/>
<path fill="#000000" opacity="1.000000" stroke="none" 
	d="
M291.730286,184.362122 
	C292.509613,182.817856 293.262512,180.604004 293.984253,180.614090 
	C300.018372,180.698532 306.156464,180.629211 312.035095,181.775909 
	C315.483582,182.448563 316.890930,185.674133 315.389801,189.692642 
	C313.076019,195.886505 309.021454,199.016830 302.429993,198.854568 
	C300.456116,198.805984 298.486877,198.565781 296.515625,198.412216 
	C289.858063,197.893585 289.915375,197.903961 291.170044,191.089584 
	C291.553650,189.006271 291.527802,186.847549 291.730286,184.362122 
z"/>
<path fill="#000000" opacity="1.000000" stroke="none" 
	d="
M344.767639,202.229858 
	C343.816925,200.067291 343.816925,200.067276 346.680542,197.848404 
	C351.422913,194.173752 357.968018,195.527145 360.931122,202.104187 
	C355.260223,202.196136 350.168274,202.278687 344.767639,202.229858 
z"/>
<path fill="#000000" opacity="1.000000" stroke="none" 
	d="
M556.094299,203.417603 
	C557.201904,212.323883 549.898926,220.167679 541.336060,219.000275 
	C539.787170,218.789093 537.764526,218.358063 536.925537,217.278534 
	C533.407898,212.752609 534.650452,207.657242 536.113647,202.773743 
	C537.164246,199.267395 543.219421,195.674225 547.607239,196.029770 
	C551.862549,196.374573 554.772949,198.829697 556.094299,203.417603 
z"/>
<path fill="#0777F3" opacity="1.000000" stroke="none" 
	d="
M231.769745,183.118637 
	C232.570023,182.471710 233.150711,182.019531 233.903259,181.349854 
	C237.447906,180.285812 240.839127,179.505463 244.187881,178.572723 
	C247.110458,177.758713 248.934204,178.534576 248.694824,181.773926 
	C248.291260,187.235245 247.640549,192.678299 247.031952,198.538879 
	C243.896927,197.185043 240.847351,195.378128 237.739243,193.678314 
	C236.436035,192.965591 235.008759,192.479736 233.318939,191.945374 
	C233.000000,192.000000 232.996155,191.997482 232.996155,191.997482 
	C232.251953,190.101898 231.328705,188.250519 230.844788,186.290680 
	C230.627319,185.410004 231.287979,184.312500 231.769745,183.118637 
z"/>
<path fill="#0777F3" opacity="1.000000" stroke="none" 
	d="
M233.001343,192.001953 
	C233.002670,192.003922 232.919250,192.043335 232.957703,192.020416 
	C232.996155,191.997482 233.000000,192.000000 233.001343,192.001953 
z"/>
</svg>